<svg xmlns:xlink="http://www.w3.org/1999/xlink" xmlns="http://www.w3.org/2000/svg" width="107" height="37" viewBox="0 0 107 37">
    <g fill="none" fill-rule="nonzero">
        <path fill="#231F20" d="M40.66 0v9.497h8.423V0H40.66zm8.155 9.232h-7.886V.265h7.89l-.004 8.967zM25.953 9.497h14.183V0L25.953 9.497zm13.938-.265H26.796C28.06 8.387 39.157.982 39.872.493l.019 8.739zM49.602 0v9.497h8.415V0h-8.415zm8.15 9.232h-7.885V.265h7.886v8.967zM58.545 0v9.497h8.419V0h-8.42zM66.7 9.232h-7.896V.265h7.891l.005 8.967zM67.487 0v9.497L81.666 0H67.487zm.264.265h13.045L67.751 9.003V.265z"/>
        <path fill="#FFDD31" d="M48.82.178h-7.978v9.136h8.06V.178zM39.827.425L26.522 9.319h13.432V.338z"/>
        <path fill="#CD392F" d="M57.753.178h-7.968v9.136h8.04V.178zM66.7.178h-7.964v9.136h8.06V.178zM80.792.178H67.665v8.98L81.07.179zM98.04 26.16a.958.958 0 0 1 .972-.931c.523.009.942.44.94.965a.958.958 0 0 1-1.644.667.952.952 0 0 1-.269-.7zm.96 1.188a1.177 1.177 0 0 0 1.156-1.187 1.177 1.177 0 0 0-1.174-1.17A1.18 1.18 0 1 0 99 27.348zm-.25-1.096h.236l.36.594h.232l-.387-.599a.35.35 0 0 0 .35-.374c0-.256-.154-.375-.454-.375h-.524v1.37h.21l-.023-.616zm0-.174v-.411h.282c.141 0 .291.032.291.187 0 .156-.154.224-.328.224h-.245zM18.54 36.466c-.7 0-1.853.32-3.328.32-3.374 0-5.318-1.782-5.318-4.838s2.213-5.12 5.764-5.12c1.621 0 2.732.383 3.379.383.183-.013.365-.045.542-.096l-.865 2.366a5.115 5.115 0 0 0-2.965-.913c-2.09 0-3.373 1.37-3.373 3.261 0 2.083 1.11 3.198 3.232 3.198a8.098 8.098 0 0 0 3.643-1.005v2.576a2.211 2.211 0 0 0-.71-.132zM24.414 32.861l1.908-4.435 2.058 4.435h-3.966zm7.199 1.988l-3.124-7.017a1.263 1.263 0 0 1-.145-.43c.026-.122.069-.24.127-.35h-3.934c.06.102.098.215.114.333-.016.16-.065.316-.146.456L21.15 34.85a6.068 6.068 0 0 1-1.116 1.694h3.643a1.103 1.103 0 0 1-.37-.886 1.764 1.764 0 0 1 .11-.626l.21-.457h5.463l.274.622c.071.183.109.378.109.575-.002.292-.122.57-.333.772h3.593a5.99 5.99 0 0 1-1.12-1.694zM35.93 31.322v-2.64h2.53c1.512 0 2.15.292 2.15 1.315 0 1.024-.638 1.33-2.15 1.33l-2.53-.005zm0 3.572v-1.95h1.092a2.801 2.801 0 0 1 2.322 1.123c.656.8.956 1.453.956 1.933a.773.773 0 0 1-.282.543h4.061c-.91-.607-1.32-1.535-1.907-2.448a3.716 3.716 0 0 0-1.649-1.572c1.676-.32 2.578-1.315 2.578-2.658a2.594 2.594 0 0 0-1.799-2.59 10.553 10.553 0 0 0-2.896-.224h-5.623c.56.256.797.768.797 1.63V34.9c0 .877-.223 1.407-.797 1.662h3.934c-.537-.242-.788-.785-.788-1.662v-.005zM54.124 36.128c-.715 0-2.067.653-4.19.653-3.614 0-5.572-1.827-5.572-4.888 0-3.06 2.149-5.089 6.128-5.089 1.403 0 2.418.256 3.042.256.314-.011.628-.043.938-.096l-.67 2.43a6.75 6.75 0 0 0-3.378-.945c-2.308 0-3.615 1.265-3.615 3.522 0 2.069 1.07 3.16 3.105 3.16 1.767 0 2.705-.625 2.705-1.749v-.859h-2.163a1.872 1.872 0 0 0-1.23.384l.337-1.22c.192-.671.37-.785 1.166-.785h4.426c-.23.244-.332.583-.273.913v4.459c-.247-.072-.5-.121-.756-.146zM56.004 27.051h3.962c-.56.242-.843.8-.843 1.63v6.245h2.696c1.516 0 2.686-.306 3.701-1.137-.523 1.37-.91 2.11-.91 2.352a.76.76 0 0 0 .196.42h-8.802c.556-.26.797-.785.797-1.635v-6.244c.018-.863-.218-1.375-.797-1.63zM69.928 32.861l1.903-4.435 2.058 4.435h-3.961zm7.185 1.988l-3.115-7.017a1.341 1.341 0 0 1-.145-.43c.028-.121.07-.24.127-.35h-3.943a.998.998 0 0 1 .114.333 1.103 1.103 0 0 1-.146.456l-3.355 7.017c-.275.62-.65 1.189-1.111 1.685h3.642a1.098 1.098 0 0 1-.369-.886 1.796 1.796 0 0 1 .11-.626l.21-.457h5.463l.273.622c.073.183.112.378.114.575-.008.293-.134.57-.35.768h3.592a6.031 6.031 0 0 1-1.116-1.69h.005zM82.868 35.04c1.585 0 2.381-.415 2.381-1.247 0-1.01-1.115-1.073-2.986-1.329-2.332-.32-3.475-1.156-3.475-2.645 0-1.713 1.594-2.992 4.294-2.992 1.744 0 3.033.302 3.77.302a.935.935 0 0 0 .4-.078l-.596 2.417a6.717 6.717 0 0 0-3.642-.914c-1.152 0-1.758.338-1.758.964 0 .913 1.102.831 3.096 1.197 2.277.415 3.397 1.2 3.397 2.84 0 2.047-1.703 3.249-4.854 3.249-1.434 0-2.504-.224-3.096-.224-.163 0-.325.031-.478.091l-.587-2.686a9.165 9.165 0 0 0 4.134 1.055zM92.607 35.04c1.597 0 2.395-.415 2.395-1.247 0-1.01-1.115-1.073-3-1.329-2.327-.32-3.46-1.156-3.46-2.645 0-1.713 1.58-2.992 4.293-2.992 1.735 0 3.028.302 3.756.302a.908.908 0 0 0 .397-.078l-.592 2.417a6.654 6.654 0 0 0-3.643-.914c-1.166 0-1.771.338-1.771.964 0 .913 1.102.831 3.114 1.197 2.254.415 3.388 1.2 3.388 2.84 0 2.047-1.694 3.249-4.854 3.249-1.439 0-2.504-.224-3.096-.224-.156.003-.31.034-.455.091l-.588-2.686a9.083 9.083 0 0 0 4.116 1.055zM8.455 16.842V14.9c0-.913-.246-1.434-.828-1.694h4.03c-.588.26-.83.8-.83 1.694v6.313c0 .914.246 1.435.83 1.695h-4.03c.587-.26.828-.8.828-1.695V18.62H3.187v2.594c0 .914.246 1.435.829 1.695H0c.587-.26.815-.8.815-1.695V14.9c0-.913-.228-1.434-.815-1.694h4.016c-.587.26-.829.8-.829 1.694v1.942h5.268zM17.88 23.136c-3.219 0-4.78-1.27-4.78-3.864V14.9c0-.913-.26-1.452-.83-1.694h4.017c-.601.278-.81.78-.81 1.694v4.285c0 1.403.828 2.17 2.403 2.17 1.576 0 2.39-.75 2.39-2.17V14.9c0-.85-.131-1.37-.814-1.694h4.03c-.552.228-.848.813-.848 1.694v4.372c.01 2.595-1.539 3.864-4.758 3.864zM27.278 17.559v-2.69h2.586c1.544 0 2.195.292 2.195 1.338s-.651 1.37-2.195 1.37l-2.586-.018zm0 3.654v-1.987h1.12a2.87 2.87 0 0 1 2.372 1.142c.665.813.975 1.485.975 1.974a.782.782 0 0 1-.292.57h4.144c-.91-.616-1.366-1.566-1.949-2.493a3.78 3.78 0 0 0-1.69-1.613c1.708-.324 2.633-1.37 2.633-2.74a2.649 2.649 0 0 0-1.822-2.64 10.784 10.784 0 0 0-2.96-.23h-5.718c.57.261.815.782.815 1.663v6.354c0 .914-.228 1.435-.815 1.695h4.016c-.57-.242-.829-.8-.829-1.695zM39.308 21.752V14.87h-.456a6.38 6.38 0 0 0-3.542.83c.323-1.223.601-1.89.601-2.105a.773.773 0 0 0-.164-.393h9.562a.65.65 0 0 0-.164.393c0 .196.26.863.6 2.106a6.38 6.38 0 0 0-3.541-.831h-.524v6.344c0 .8.341 1.503.879 1.695h-4.03c.459-.204.76-.653.779-1.156zM49.352 14.9v6.313c0 .914.246 1.435.829 1.695h-4.012c.588-.26.815-.8.815-1.695V14.9c0-.913-.227-1.434-.815-1.694h4.016c-.587.26-.833.8-.833 1.694zM60.699 22.47c-.729 0-2.113.666-4.276.666-3.692 0-5.691-1.827-5.691-4.988 0-3.16 2.194-5.189 6.26-5.189 1.43 0 2.473.26 3.106.26.32-.01.64-.043.956-.095l-.683 2.48a6.89 6.89 0 0 0-3.456-.964c-2.359 0-3.688 1.288-3.688 3.59 0 2.12 1.093 3.23 3.187 3.23 1.821 0 2.764-.635 2.764-1.777v-.882H56.96a1.913 1.913 0 0 0-1.252.389l.342-1.256c.196-.686.373-.8 1.188-.8h4.521a1.09 1.09 0 0 0-.277.914v4.568a4.654 4.654 0 0 0-.783-.146zM65.82 17.559v-2.69h2.587c1.544 0 2.195.292 2.195 1.338s-.651 1.37-2.195 1.37l-2.586-.018zm0 3.654v-1.987h1.112a2.87 2.87 0 0 1 2.372 1.142c.665.813.975 1.485.975 1.974a.782.782 0 0 1-.292.57h4.144c-.911-.616-1.366-1.566-1.954-2.493a3.775 3.775 0 0 0-1.689-1.613c1.707-.324 2.632-1.37 2.632-2.74a2.649 2.649 0 0 0-1.822-2.64 10.78 10.78 0 0 0-2.96-.23h-5.704c.569.261.81.782.81 1.663v6.354c0 .914-.227 1.435-.81 1.695h4.016c-.57-.242-.83-.8-.83-1.695zM79.622 23.136c-3.22 0-4.781-1.27-4.781-3.864V14.9c0-.913-.26-1.452-.829-1.694h4.016c-.601.278-.815.78-.815 1.694v4.285c0 1.403.829 2.17 2.409 2.17 1.58 0 2.39-.75 2.39-2.17V14.9c0-.85-.132-1.37-.815-1.694h4.03c-.551.228-.847.813-.847 1.694v4.372c.004 2.595-1.54 3.864-4.758 3.864zM89.343 21.752V14.87h-.456a6.358 6.358 0 0 0-3.547.83c.324-1.223.601-1.89.601-2.105a.782.782 0 0 0-.163-.393h9.561a.654.654 0 0 0-.164.393c0 .196.26.863.601 2.106a6.38 6.38 0 0 0-3.542-.831h-.505v6.344c0 .8.341 1.503.878 1.695h-4.03c.454-.208.75-.656.766-1.156zM98.349 19.144l1.93-4.527 2.1 4.536-4.03-.009zm7.349 2.02l-3.187-7.159a1.332 1.332 0 0 1-.146-.457 1.41 1.41 0 0 1 .132-.36H98.48c.06.106.098.222.114.342-.017.16-.066.316-.146.457l-3.428 7.158a6.214 6.214 0 0 1-1.139 1.745h3.725a1.116 1.116 0 0 1-.374-.914 1.709 1.709 0 0 1 .114-.635l.21-.457h5.577l.278.635c.074.186.112.385.114.585a1.084 1.084 0 0 1-.355.781h3.674a6.1 6.1 0 0 1-1.165-1.722h.018z"/>
    </g>
</svg>