<svg xmlns:xlink="http://www.w3.org/1999/xlink" xmlns="http://www.w3.org/2000/svg" width="139" height="37" viewBox="0 0 139 37">
    <g fill="none" fill-rule="evenodd">
        <path fill="#1A1918" d="M47.063 14.624h12.929V.079H47.063zM46.255 14.624H24.43L46.255.079v14.545M60.8 14.624h12.928V.079H60.8zM74.537 14.624h12.928V.079H74.537zM88.273 14.624V.079h21.775L88.273 14.624"/>
        <path fill="#FFDD31" d="M59.588.483V14.22h-12.12V.483h12.12M45.851.833V14.22H25.766L45.85.833"/>
        <path fill="#CE392F" d="M73.324.483V14.22h-12.12V.483h12.12M87.06.483V14.22H74.94V.483h12.12M108.716.483L88.677 13.868V.483h20.039M135.662 20.097c0-.855.645-1.5 1.471-1.5.818 0 1.463.645 1.463 1.5 0 .87-.645 1.51-1.463 1.51-.826 0-1.471-.64-1.471-1.51zm1.471 1.812c.985 0 1.826-.765 1.826-1.812 0-1.037-.841-1.801-1.826-1.801-.994 0-1.835.764-1.835 1.801 0 1.047.841 1.812 1.835 1.812zm-.382-1.668h.363l.55.903h.354l-.593-.918c.306-.038.54-.2.54-.573 0-.41-.244-.593-.736-.593h-.793v2.084h.315v-.903zm0-.268v-.645h.43c.22 0 .454.048.454.306 0 .32-.239.34-.506.34h-.378zM13.34 36.35c-1.076 0-2.837.488-5.112.488-5.186 0-8.17-2.715-8.17-7.411 0-4.746 3.4-7.828 8.855-7.828 2.495 0 4.231.587 5.185.587.245 0 .49-.073.807-.147l-1.296 3.62c-1.419-.954-2.886-1.394-4.55-1.394-3.204 0-5.185 2.08-5.185 4.99 0 3.205 1.712 4.917 4.965 4.917 1.835 0 3.596-.562 5.577-1.541v3.938c-.416-.147-.758-.22-1.076-.22M22.365 30.845l2.936-6.8 3.155 6.8h-6.09zm11.056 3.034L28.627 23.14c-.147-.318-.22-.538-.22-.66 0-.123.098-.294.196-.538H22.56c.122.269.172.415.172.513 0 .147-.074.391-.22.685L17.35 33.88c-.49 1.002-.978 1.883-1.712 2.617h5.601c-.367-.318-.562-.759-.562-1.345 0-.368.073-.735.171-.955l.318-.71h8.39l.415.955c.074.171.172.514.172.88 0 .441-.172.784-.538 1.175h5.528c-.685-.71-1.248-1.59-1.713-2.617zM40.05 28.473v-4.037h3.89c2.323 0 3.301.44 3.301 2.006 0 1.566-.978 2.03-3.302 2.03H40.05zm0 5.479v-2.984h1.688c1.467 0 2.617.538 3.57 1.712 1.004 1.223 1.468 2.226 1.468 2.96 0 .318-.146.562-.44.856h6.237c-1.37-.93-2.03-2.349-2.935-3.743-.66-1.027-1.296-1.859-2.544-2.421 2.569-.49 3.963-2.03 3.963-4.085 0-1.933-1.076-3.425-2.764-3.963-1.076-.342-2.568-.342-4.452-.342h-8.585c.856.39 1.223 1.173 1.223 2.494v9.516c0 1.345-.343 2.153-1.223 2.544h6.041c-.856-.367-1.247-1.199-1.247-2.544zM68.007 35.835c-1.1 0-3.18 1.003-6.433 1.003-5.552 0-8.56-2.764-8.56-7.485 0-4.648 3.302-7.778 9.416-7.778 2.153 0 3.718.39 4.672.39.294 0 .783-.048 1.443-.146l-1.027 3.718c-1.663-.954-3.424-1.443-5.186-1.443-3.546 0-5.552 1.932-5.552 5.381 0 3.18 1.64 4.844 4.77 4.844 2.715 0 4.158-.954 4.158-2.667v-1.32H62.38c-.709 0-1.247.122-1.883.587l.514-1.884c.293-1.027.562-1.198 1.785-1.198h6.8c-.416.416-.416.807-.416 1.37v6.824c-.562-.123-.954-.196-1.174-.196M70.918 21.942h6.09c-.856.366-1.296 1.223-1.296 2.494v9.565h4.134c2.323 0 4.133-.465 5.699-1.737-.807 2.08-1.395 3.229-1.395 3.596 0 .195.123.391.294.636H70.918c.856-.391 1.222-1.199 1.222-2.495v-9.565c0-1.32-.366-2.103-1.222-2.494M92.267 30.845l2.936-6.8 3.155 6.8h-6.09zm11.057 3.034L98.529 23.14c-.146-.318-.22-.538-.22-.66 0-.123.098-.294.196-.538h-6.042c.123.269.172.415.172.513 0 .147-.074.391-.22.685L87.252 33.88c-.489 1.002-.978 1.883-1.712 2.617h5.601c-.366-.318-.562-.759-.562-1.345 0-.368.073-.735.171-.955l.318-.71h8.39l.416.955c.073.171.17.514.17.88 0 .441-.17.784-.537 1.175h5.528c-.685-.71-1.248-1.59-1.712-2.617zM112.178 34.172c2.446 0 3.67-.636 3.67-1.908 0-1.54-1.713-1.639-4.6-2.03-3.57-.49-5.332-1.786-5.332-4.06 0-2.618 2.446-4.575 6.605-4.575 2.666 0 4.647.465 5.772.465.196 0 .391-.025.611-.122L118 25.635c-1.418-.905-3.326-1.419-5.6-1.419-1.786 0-2.716.514-2.716 1.468 0 1.419 1.688 1.272 4.77 1.834 3.473.637 5.21 1.835 5.21 4.354 0 3.132-2.618 4.966-7.46 4.966-2.202 0-3.84-.342-4.746-.342-.244 0-.489.049-.734.147l-.904-4.11c2.201 1.1 4.28 1.64 6.359 1.64M127.123 34.172c2.446 0 3.669-.636 3.669-1.908 0-1.54-1.712-1.639-4.599-2.03-3.57-.49-5.332-1.786-5.332-4.06 0-2.618 2.446-4.575 6.604-4.575 2.666 0 4.647.465 5.773.465.195 0 .391-.025.611-.122l-.905 3.693c-1.418-.905-3.326-1.419-5.601-1.419-1.786 0-2.715.514-2.715 1.468 0 1.419 1.688 1.272 4.77 1.834 3.473.637 5.21 1.835 5.21 4.354 0 3.132-2.618 4.966-7.46 4.966-2.202 0-3.84-.342-4.746-.342-.245 0-.49.049-.734.147l-.905-4.11c2.202 1.1 4.28 1.64 6.36 1.64"/>
    </g>
</svg>